<mxfile host="Electron" agent="Mozilla/5.0 (Windows NT 10.0; Win64; x64) AppleWebKit/537.36 (KHTML, like Gecko) draw.io/26.2.2 Chrome/134.0.6998.178 Electron/35.1.2 Safari/537.36" version="26.2.2">
  <diagram name="Page-1" id="6133507b-19e7-1e82-6fc7-422aa6c4b21f">
    <mxGraphModel dx="1680" dy="989" grid="1" gridSize="10" guides="1" tooltips="1" connect="1" arrows="1" fold="1" page="1" pageScale="1" pageWidth="1100" pageHeight="1800" background="none" math="0" shadow="0">
      <root>
        <mxCell id="0" />
        <mxCell id="1" parent="0" />
        <mxCell id="78961159f06e98e8-17" value="SearchQuery&amp;lt;T&amp;gt;" style="swimlane;html=1;fontStyle=1;align=center;verticalAlign=top;childLayout=stackLayout;horizontal=1;startSize=26;horizontalStack=0;resizeParent=1;resizeLast=0;collapsible=1;marginBottom=0;swimlaneFillColor=#ffffff;rounded=0;shadow=0;comic=0;labelBackgroundColor=none;strokeWidth=1;fillColor=none;fontFamily=Verdana;fontSize=12" parent="1" vertex="1">
          <mxGeometry x="440" y="70" width="160" height="60" as="geometry" />
        </mxCell>
        <mxCell id="78961159f06e98e8-19" value="" style="line;html=1;strokeWidth=1;fillColor=none;align=left;verticalAlign=middle;spacingTop=-1;spacingLeft=3;spacingRight=3;rotatable=0;labelPosition=right;points=[];portConstraint=eastwest;" parent="78961159f06e98e8-17" vertex="1">
          <mxGeometry y="26" width="160" height="8" as="geometry" />
        </mxCell>
        <mxCell id="78961159f06e98e8-27" value="+ match(T): boolean" style="text;html=1;strokeColor=none;fillColor=none;align=left;verticalAlign=top;spacingLeft=4;spacingRight=4;whiteSpace=wrap;overflow=hidden;rotatable=0;points=[[0,0.5],[1,0.5]];portConstraint=eastwest;" parent="78961159f06e98e8-17" vertex="1">
          <mxGeometry y="34" width="160" height="26" as="geometry" />
        </mxCell>
        <mxCell id="ATgg8qfnykilX8GTX_Vd-5" value="BooleanSearchQuery" style="swimlane;html=1;fontStyle=1;align=center;verticalAlign=top;childLayout=stackLayout;horizontal=1;startSize=26;horizontalStack=0;resizeParent=1;resizeLast=0;collapsible=1;marginBottom=0;swimlaneFillColor=#ffffff;rounded=0;shadow=0;comic=0;labelBackgroundColor=none;strokeWidth=1;fillColor=none;fontFamily=Verdana;fontSize=12" vertex="1" parent="1">
          <mxGeometry x="200" y="190" width="160" height="86" as="geometry" />
        </mxCell>
        <mxCell id="ATgg8qfnykilX8GTX_Vd-8" value="- value: boolean" style="text;strokeColor=none;fillColor=none;align=left;verticalAlign=top;spacingLeft=4;spacingRight=4;overflow=hidden;rotatable=0;points=[[0,0.5],[1,0.5]];portConstraint=eastwest;whiteSpace=wrap;html=1;" vertex="1" parent="ATgg8qfnykilX8GTX_Vd-5">
          <mxGeometry y="26" width="160" height="26" as="geometry" />
        </mxCell>
        <mxCell id="ATgg8qfnykilX8GTX_Vd-6" value="" style="line;html=1;strokeWidth=1;fillColor=none;align=left;verticalAlign=middle;spacingTop=-1;spacingLeft=3;spacingRight=3;rotatable=0;labelPosition=right;points=[];portConstraint=eastwest;" vertex="1" parent="ATgg8qfnykilX8GTX_Vd-5">
          <mxGeometry y="52" width="160" height="8" as="geometry" />
        </mxCell>
        <mxCell id="ATgg8qfnykilX8GTX_Vd-7" value="+ match(boolean): boolean" style="text;html=1;strokeColor=none;fillColor=none;align=left;verticalAlign=top;spacingLeft=4;spacingRight=4;whiteSpace=wrap;overflow=hidden;rotatable=0;points=[[0,0.5],[1,0.5]];portConstraint=eastwest;" vertex="1" parent="ATgg8qfnykilX8GTX_Vd-5">
          <mxGeometry y="60" width="160" height="26" as="geometry" />
        </mxCell>
        <mxCell id="ATgg8qfnykilX8GTX_Vd-12" value="All SeachQuery classes implement SearchQuery&amp;lt;T&amp;gt;. No need to clutter up the graph with arrows" style="text;html=1;align=center;verticalAlign=middle;resizable=0;points=[];autosize=1;strokeColor=none;fillColor=none;" vertex="1" parent="1">
          <mxGeometry x="20" y="20" width="540" height="30" as="geometry" />
        </mxCell>
        <mxCell id="ATgg8qfnykilX8GTX_Vd-13" value="StringSearchQuery" style="swimlane;html=1;fontStyle=1;align=center;verticalAlign=top;childLayout=stackLayout;horizontal=1;startSize=26;horizontalStack=0;resizeParent=1;resizeLast=0;collapsible=1;marginBottom=0;swimlaneFillColor=#ffffff;rounded=0;shadow=0;comic=0;labelBackgroundColor=none;strokeWidth=1;fillColor=none;fontFamily=Verdana;fontSize=12" vertex="1" parent="1">
          <mxGeometry x="680" y="180" width="160" height="86" as="geometry" />
        </mxCell>
        <mxCell id="ATgg8qfnykilX8GTX_Vd-14" value="- searchString: String" style="text;strokeColor=none;fillColor=none;align=left;verticalAlign=top;spacingLeft=4;spacingRight=4;overflow=hidden;rotatable=0;points=[[0,0.5],[1,0.5]];portConstraint=eastwest;whiteSpace=wrap;html=1;" vertex="1" parent="ATgg8qfnykilX8GTX_Vd-13">
          <mxGeometry y="26" width="160" height="26" as="geometry" />
        </mxCell>
        <mxCell id="ATgg8qfnykilX8GTX_Vd-15" value="" style="line;html=1;strokeWidth=1;fillColor=none;align=left;verticalAlign=middle;spacingTop=-1;spacingLeft=3;spacingRight=3;rotatable=0;labelPosition=right;points=[];portConstraint=eastwest;" vertex="1" parent="ATgg8qfnykilX8GTX_Vd-13">
          <mxGeometry y="52" width="160" height="8" as="geometry" />
        </mxCell>
        <mxCell id="ATgg8qfnykilX8GTX_Vd-16" value="+ match(boolean): boolean" style="text;html=1;strokeColor=none;fillColor=none;align=left;verticalAlign=top;spacingLeft=4;spacingRight=4;whiteSpace=wrap;overflow=hidden;rotatable=0;points=[[0,0.5],[1,0.5]];portConstraint=eastwest;" vertex="1" parent="ATgg8qfnykilX8GTX_Vd-13">
          <mxGeometry y="60" width="160" height="26" as="geometry" />
        </mxCell>
        <mxCell id="ATgg8qfnykilX8GTX_Vd-17" value="RangeSearchQuery&lt;div&gt;E extends Comparable&lt;/div&gt;" style="swimlane;html=1;fontStyle=1;align=center;verticalAlign=top;childLayout=stackLayout;horizontal=1;startSize=40;horizontalStack=0;resizeParent=1;resizeLast=0;collapsible=1;marginBottom=0;swimlaneFillColor=#ffffff;rounded=0;shadow=0;comic=0;labelBackgroundColor=none;strokeWidth=1;fillColor=none;fontFamily=Verdana;fontSize=12" vertex="1" parent="1">
          <mxGeometry x="440" y="170" width="160" height="126" as="geometry" />
        </mxCell>
        <mxCell id="ATgg8qfnykilX8GTX_Vd-18" value="- min: E" style="text;strokeColor=none;fillColor=none;align=left;verticalAlign=top;spacingLeft=4;spacingRight=4;overflow=hidden;rotatable=0;points=[[0,0.5],[1,0.5]];portConstraint=eastwest;whiteSpace=wrap;html=1;" vertex="1" parent="ATgg8qfnykilX8GTX_Vd-17">
          <mxGeometry y="40" width="160" height="26" as="geometry" />
        </mxCell>
        <mxCell id="ATgg8qfnykilX8GTX_Vd-21" value="- max: E" style="text;strokeColor=none;fillColor=none;align=left;verticalAlign=top;spacingLeft=4;spacingRight=4;overflow=hidden;rotatable=0;points=[[0,0.5],[1,0.5]];portConstraint=eastwest;whiteSpace=wrap;html=1;" vertex="1" parent="ATgg8qfnykilX8GTX_Vd-17">
          <mxGeometry y="66" width="160" height="26" as="geometry" />
        </mxCell>
        <mxCell id="ATgg8qfnykilX8GTX_Vd-19" value="" style="line;html=1;strokeWidth=1;fillColor=none;align=left;verticalAlign=middle;spacingTop=-1;spacingLeft=3;spacingRight=3;rotatable=0;labelPosition=right;points=[];portConstraint=eastwest;" vertex="1" parent="ATgg8qfnykilX8GTX_Vd-17">
          <mxGeometry y="92" width="160" height="8" as="geometry" />
        </mxCell>
        <mxCell id="ATgg8qfnykilX8GTX_Vd-20" value="+ match(E): boolean" style="text;html=1;strokeColor=none;fillColor=none;align=left;verticalAlign=top;spacingLeft=4;spacingRight=4;whiteSpace=wrap;overflow=hidden;rotatable=0;points=[[0,0.5],[1,0.5]];portConstraint=eastwest;" vertex="1" parent="ATgg8qfnykilX8GTX_Vd-17">
          <mxGeometry y="100" width="160" height="26" as="geometry" />
        </mxCell>
        <mxCell id="ATgg8qfnykilX8GTX_Vd-55" style="edgeStyle=orthogonalEdgeStyle;rounded=0;orthogonalLoop=1;jettySize=auto;html=1;exitX=0.25;exitY=0;exitDx=0;exitDy=0;endArrow=diamondThin;endFill=1;endSize=16;" edge="1" parent="1" source="ATgg8qfnykilX8GTX_Vd-22" target="ATgg8qfnykilX8GTX_Vd-17">
          <mxGeometry relative="1" as="geometry" />
        </mxCell>
        <mxCell id="ATgg8qfnykilX8GTX_Vd-57" style="edgeStyle=orthogonalEdgeStyle;rounded=0;orthogonalLoop=1;jettySize=auto;html=1;exitX=0.5;exitY=0;exitDx=0;exitDy=0;endArrow=diamondThin;endFill=1;endSize=16;" edge="1" parent="1" source="ATgg8qfnykilX8GTX_Vd-22" target="ATgg8qfnykilX8GTX_Vd-13">
          <mxGeometry relative="1" as="geometry" />
        </mxCell>
        <mxCell id="ATgg8qfnykilX8GTX_Vd-22" value="ListingSearchQuery" style="swimlane;html=1;fontStyle=1;align=center;verticalAlign=top;childLayout=stackLayout;horizontal=1;startSize=30;horizontalStack=0;resizeParent=1;resizeLast=0;collapsible=1;marginBottom=0;swimlaneFillColor=#ffffff;rounded=0;shadow=0;comic=0;labelBackgroundColor=none;strokeWidth=1;fillColor=none;fontFamily=Verdana;fontSize=12" vertex="1" parent="1">
          <mxGeometry x="590" y="350" width="340" height="120" as="geometry" />
        </mxCell>
        <mxCell id="ATgg8qfnykilX8GTX_Vd-23" value="- priceRangeSearchQuery: RangeSearchQuery&amp;lt;Price&amp;gt;" style="text;strokeColor=none;fillColor=none;align=left;verticalAlign=top;spacingLeft=4;spacingRight=4;overflow=hidden;rotatable=0;points=[[0,0.5],[1,0.5]];portConstraint=eastwest;whiteSpace=wrap;html=1;" vertex="1" parent="ATgg8qfnykilX8GTX_Vd-22">
          <mxGeometry y="30" width="340" height="26" as="geometry" />
        </mxCell>
        <mxCell id="ATgg8qfnykilX8GTX_Vd-24" value="- titleSearchQuery: StringSearchQuery" style="text;strokeColor=none;fillColor=none;align=left;verticalAlign=top;spacingLeft=4;spacingRight=4;overflow=hidden;rotatable=0;points=[[0,0.5],[1,0.5]];portConstraint=eastwest;whiteSpace=wrap;html=1;" vertex="1" parent="ATgg8qfnykilX8GTX_Vd-22">
          <mxGeometry y="56" width="340" height="26" as="geometry" />
        </mxCell>
        <mxCell id="ATgg8qfnykilX8GTX_Vd-25" value="" style="line;html=1;strokeWidth=1;fillColor=none;align=left;verticalAlign=middle;spacingTop=-1;spacingLeft=3;spacingRight=3;rotatable=0;labelPosition=right;points=[];portConstraint=eastwest;" vertex="1" parent="ATgg8qfnykilX8GTX_Vd-22">
          <mxGeometry y="82" width="340" height="8" as="geometry" />
        </mxCell>
        <mxCell id="ATgg8qfnykilX8GTX_Vd-26" value="+ match(Listing): boolean" style="text;html=1;strokeColor=none;fillColor=none;align=left;verticalAlign=top;spacingLeft=4;spacingRight=4;whiteSpace=wrap;overflow=hidden;rotatable=0;points=[[0,0.5],[1,0.5]];portConstraint=eastwest;" vertex="1" parent="ATgg8qfnykilX8GTX_Vd-22">
          <mxGeometry y="90" width="340" height="26" as="geometry" />
        </mxCell>
        <mxCell id="ATgg8qfnykilX8GTX_Vd-58" style="edgeStyle=orthogonalEdgeStyle;rounded=0;orthogonalLoop=1;jettySize=auto;html=1;exitX=0.75;exitY=0;exitDx=0;exitDy=0;endArrow=diamondThin;endFill=1;endSize=16;" edge="1" parent="1" source="ATgg8qfnykilX8GTX_Vd-27" target="ATgg8qfnykilX8GTX_Vd-13">
          <mxGeometry relative="1" as="geometry">
            <Array as="points">
              <mxPoint x="410" y="380" />
              <mxPoint x="410" y="150" />
              <mxPoint x="760" y="150" />
            </Array>
          </mxGeometry>
        </mxCell>
        <mxCell id="ATgg8qfnykilX8GTX_Vd-27" value="UserSearchQuery" style="swimlane;html=1;fontStyle=1;align=center;verticalAlign=top;childLayout=stackLayout;horizontal=1;startSize=30;horizontalStack=0;resizeParent=1;resizeLast=0;collapsible=1;marginBottom=0;swimlaneFillColor=#ffffff;rounded=0;shadow=0;comic=0;labelBackgroundColor=none;strokeWidth=1;fillColor=none;fontFamily=Verdana;fontSize=12" vertex="1" parent="1">
          <mxGeometry x="250" y="380" width="260" height="142" as="geometry" />
        </mxCell>
        <mxCell id="ATgg8qfnykilX8GTX_Vd-28" value="- firstNameSearchQuery: StringSearchQuery" style="text;strokeColor=none;fillColor=none;align=left;verticalAlign=top;spacingLeft=4;spacingRight=4;overflow=hidden;rotatable=0;points=[[0,0.5],[1,0.5]];portConstraint=eastwest;whiteSpace=wrap;html=1;" vertex="1" parent="ATgg8qfnykilX8GTX_Vd-27">
          <mxGeometry y="30" width="260" height="26" as="geometry" />
        </mxCell>
        <mxCell id="ATgg8qfnykilX8GTX_Vd-29" value="- lastNameSearchQuery: StringSearchQuery" style="text;strokeColor=none;fillColor=none;align=left;verticalAlign=top;spacingLeft=4;spacingRight=4;overflow=hidden;rotatable=0;points=[[0,0.5],[1,0.5]];portConstraint=eastwest;whiteSpace=wrap;html=1;" vertex="1" parent="ATgg8qfnykilX8GTX_Vd-27">
          <mxGeometry y="56" width="260" height="26" as="geometry" />
        </mxCell>
        <mxCell id="ATgg8qfnykilX8GTX_Vd-32" value="- emailSearchQuery: StringSearchQuery" style="text;strokeColor=none;fillColor=none;align=left;verticalAlign=top;spacingLeft=4;spacingRight=4;overflow=hidden;rotatable=0;points=[[0,0.5],[1,0.5]];portConstraint=eastwest;whiteSpace=wrap;html=1;" vertex="1" parent="ATgg8qfnykilX8GTX_Vd-27">
          <mxGeometry y="82" width="260" height="26" as="geometry" />
        </mxCell>
        <mxCell id="ATgg8qfnykilX8GTX_Vd-30" value="" style="line;html=1;strokeWidth=1;fillColor=none;align=left;verticalAlign=middle;spacingTop=-1;spacingLeft=3;spacingRight=3;rotatable=0;labelPosition=right;points=[];portConstraint=eastwest;" vertex="1" parent="ATgg8qfnykilX8GTX_Vd-27">
          <mxGeometry y="108" width="260" height="8" as="geometry" />
        </mxCell>
        <mxCell id="ATgg8qfnykilX8GTX_Vd-31" value="+ match(User): boolean" style="text;html=1;strokeColor=none;fillColor=none;align=left;verticalAlign=top;spacingLeft=4;spacingRight=4;whiteSpace=wrap;overflow=hidden;rotatable=0;points=[[0,0.5],[1,0.5]];portConstraint=eastwest;" vertex="1" parent="ATgg8qfnykilX8GTX_Vd-27">
          <mxGeometry y="116" width="260" height="26" as="geometry" />
        </mxCell>
        <mxCell id="ATgg8qfnykilX8GTX_Vd-50" style="edgeStyle=orthogonalEdgeStyle;rounded=0;orthogonalLoop=1;jettySize=auto;html=1;exitX=0.75;exitY=0;exitDx=0;exitDy=0;endArrow=diamondThin;endFill=1;endSize=16;" edge="1" parent="1" source="ATgg8qfnykilX8GTX_Vd-33" target="ATgg8qfnykilX8GTX_Vd-27">
          <mxGeometry relative="1" as="geometry">
            <Array as="points">
              <mxPoint x="380" y="570" />
            </Array>
          </mxGeometry>
        </mxCell>
        <mxCell id="ATgg8qfnykilX8GTX_Vd-54" style="edgeStyle=orthogonalEdgeStyle;rounded=0;orthogonalLoop=1;jettySize=auto;html=1;exitX=0.25;exitY=0;exitDx=0;exitDy=0;endArrow=diamondThin;endFill=1;endSize=16;" edge="1" parent="1" source="ATgg8qfnykilX8GTX_Vd-33" target="ATgg8qfnykilX8GTX_Vd-5">
          <mxGeometry relative="1" as="geometry">
            <Array as="points">
              <mxPoint x="193" y="448" />
              <mxPoint x="160" y="448" />
              <mxPoint x="160" y="233" />
            </Array>
          </mxGeometry>
        </mxCell>
        <mxCell id="ATgg8qfnykilX8GTX_Vd-33" value="OtherUserSearchQuery" style="swimlane;html=1;fontStyle=1;align=center;verticalAlign=top;childLayout=stackLayout;horizontal=1;startSize=30;horizontalStack=0;resizeParent=1;resizeLast=0;collapsible=1;marginBottom=0;swimlaneFillColor=#ffffff;rounded=0;shadow=0;comic=0;labelBackgroundColor=none;strokeWidth=1;fillColor=none;fontFamily=Verdana;fontSize=12" vertex="1" parent="1">
          <mxGeometry x="75" y="570" width="410" height="168" as="geometry" />
        </mxCell>
        <mxCell id="ATgg8qfnykilX8GTX_Vd-34" value="- userSearchQuery: UserSearchQuery" style="text;strokeColor=none;fillColor=none;align=left;verticalAlign=top;spacingLeft=4;spacingRight=4;overflow=hidden;rotatable=0;points=[[0,0.5],[1,0.5]];portConstraint=eastwest;whiteSpace=wrap;html=1;" vertex="1" parent="ATgg8qfnykilX8GTX_Vd-33">
          <mxGeometry y="30" width="410" height="26" as="geometry" />
        </mxCell>
        <mxCell id="ATgg8qfnykilX8GTX_Vd-35" value="- isAFriendSearchQuery: BooleanSearchQuery" style="text;strokeColor=none;fillColor=none;align=left;verticalAlign=top;spacingLeft=4;spacingRight=4;overflow=hidden;rotatable=0;points=[[0,0.5],[1,0.5]];portConstraint=eastwest;whiteSpace=wrap;html=1;" vertex="1" parent="ATgg8qfnykilX8GTX_Vd-33">
          <mxGeometry y="56" width="410" height="26" as="geometry" />
        </mxCell>
        <mxCell id="ATgg8qfnykilX8GTX_Vd-36" value="- selfSentThisPersonAFriendRequestSearchQuery: BooleanSearchQuery" style="text;strokeColor=none;fillColor=none;align=left;verticalAlign=top;spacingLeft=4;spacingRight=4;overflow=hidden;rotatable=0;points=[[0,0.5],[1,0.5]];portConstraint=eastwest;whiteSpace=wrap;html=1;" vertex="1" parent="ATgg8qfnykilX8GTX_Vd-33">
          <mxGeometry y="82" width="410" height="26" as="geometry" />
        </mxCell>
        <mxCell id="ATgg8qfnykilX8GTX_Vd-39" value="- thisPersonSentSelfAFriendRequest: BooleanSearchQuery" style="text;strokeColor=none;fillColor=none;align=left;verticalAlign=top;spacingLeft=4;spacingRight=4;overflow=hidden;rotatable=0;points=[[0,0.5],[1,0.5]];portConstraint=eastwest;whiteSpace=wrap;html=1;" vertex="1" parent="ATgg8qfnykilX8GTX_Vd-33">
          <mxGeometry y="108" width="410" height="26" as="geometry" />
        </mxCell>
        <mxCell id="ATgg8qfnykilX8GTX_Vd-37" value="" style="line;html=1;strokeWidth=1;fillColor=none;align=left;verticalAlign=middle;spacingTop=-1;spacingLeft=3;spacingRight=3;rotatable=0;labelPosition=right;points=[];portConstraint=eastwest;" vertex="1" parent="ATgg8qfnykilX8GTX_Vd-33">
          <mxGeometry y="134" width="410" height="8" as="geometry" />
        </mxCell>
        <mxCell id="ATgg8qfnykilX8GTX_Vd-38" value="+ match(OtherUser): boolean" style="text;html=1;strokeColor=none;fillColor=none;align=left;verticalAlign=top;spacingLeft=4;spacingRight=4;whiteSpace=wrap;overflow=hidden;rotatable=0;points=[[0,0.5],[1,0.5]];portConstraint=eastwest;" vertex="1" parent="ATgg8qfnykilX8GTX_Vd-33">
          <mxGeometry y="142" width="410" height="26" as="geometry" />
        </mxCell>
        <mxCell id="ATgg8qfnykilX8GTX_Vd-60" value="Then, on the React Frontend, we have a component for each Search Query type. And the components compose each others in the same exact way" style="text;html=1;align=center;verticalAlign=middle;resizable=0;points=[];autosize=1;strokeColor=none;fillColor=none;" vertex="1" parent="1">
          <mxGeometry x="145" y="760" width="810" height="30" as="geometry" />
        </mxCell>
      </root>
    </mxGraphModel>
  </diagram>
</mxfile>
